<mxfile host="app.diagrams.net" agent="Mozilla/5.0 (X11; Linux x86_64) AppleWebKit/537.36 (KHTML, like Gecko) Chrome/135.0.0.0 Safari/537.36" version="26.2.14">
  <diagram name="Page-1" id="H_JIel1_R9tgV8G6fAht">
    <mxGraphModel dx="1111" dy="486" grid="1" gridSize="10" guides="1" tooltips="1" connect="1" arrows="1" fold="1" page="1" pageScale="1" pageWidth="850" pageHeight="1100" math="0" shadow="0">
      <root>
        <mxCell id="0" />
        <mxCell id="1" parent="0" />
        <mxCell id="uWBQQK3N8dRWs0t0_VWJ-1" value="Buys_computer Yes(Y) or No(N)" style="ellipse;whiteSpace=wrap;html=1;" vertex="1" parent="1">
          <mxGeometry x="340" y="40" width="120" height="80" as="geometry" />
        </mxCell>
        <mxCell id="uWBQQK3N8dRWs0t0_VWJ-2" value="Age?" style="rounded=1;whiteSpace=wrap;html=1;" vertex="1" parent="1">
          <mxGeometry x="350" y="140" width="120" height="60" as="geometry" />
        </mxCell>
        <mxCell id="uWBQQK3N8dRWs0t0_VWJ-3" value="Y" style="ellipse;whiteSpace=wrap;html=1;aspect=fixed;" vertex="1" parent="1">
          <mxGeometry x="370" y="330" width="80" height="80" as="geometry" />
        </mxCell>
        <mxCell id="uWBQQK3N8dRWs0t0_VWJ-4" value="" style="endArrow=none;html=1;rounded=0;" edge="1" parent="1" source="uWBQQK3N8dRWs0t0_VWJ-3" target="uWBQQK3N8dRWs0t0_VWJ-2">
          <mxGeometry width="50" height="50" relative="1" as="geometry">
            <mxPoint x="400" y="280" as="sourcePoint" />
            <mxPoint x="450" y="230" as="targetPoint" />
          </mxGeometry>
        </mxCell>
        <mxCell id="uWBQQK3N8dRWs0t0_VWJ-5" value="31..40" style="text;html=1;align=center;verticalAlign=middle;resizable=0;points=[];autosize=1;strokeColor=none;fillColor=none;" vertex="1" parent="1">
          <mxGeometry x="410" y="260" width="60" height="30" as="geometry" />
        </mxCell>
        <mxCell id="uWBQQK3N8dRWs0t0_VWJ-6" value="Student" style="rounded=1;whiteSpace=wrap;html=1;" vertex="1" parent="1">
          <mxGeometry x="80" y="280" width="120" height="60" as="geometry" />
        </mxCell>
        <mxCell id="uWBQQK3N8dRWs0t0_VWJ-7" value="" style="endArrow=none;html=1;rounded=0;" edge="1" parent="1" source="uWBQQK3N8dRWs0t0_VWJ-6" target="uWBQQK3N8dRWs0t0_VWJ-2">
          <mxGeometry width="50" height="50" relative="1" as="geometry">
            <mxPoint x="420" y="340" as="sourcePoint" />
            <mxPoint x="420" y="210" as="targetPoint" />
          </mxGeometry>
        </mxCell>
        <mxCell id="uWBQQK3N8dRWs0t0_VWJ-8" value="&amp;lt;=30" style="text;html=1;align=center;verticalAlign=middle;resizable=0;points=[];autosize=1;strokeColor=none;fillColor=none;" vertex="1" parent="1">
          <mxGeometry x="215" y="208" width="50" height="30" as="geometry" />
        </mxCell>
        <mxCell id="uWBQQK3N8dRWs0t0_VWJ-9" value="Y" style="ellipse;whiteSpace=wrap;html=1;aspect=fixed;" vertex="1" parent="1">
          <mxGeometry x="10" y="430" width="80" height="80" as="geometry" />
        </mxCell>
        <mxCell id="uWBQQK3N8dRWs0t0_VWJ-10" value="N" style="ellipse;whiteSpace=wrap;html=1;aspect=fixed;" vertex="1" parent="1">
          <mxGeometry x="185" y="430" width="80" height="80" as="geometry" />
        </mxCell>
        <mxCell id="uWBQQK3N8dRWs0t0_VWJ-11" value="" style="endArrow=none;html=1;rounded=0;" edge="1" parent="1" source="uWBQQK3N8dRWs0t0_VWJ-6" target="uWBQQK3N8dRWs0t0_VWJ-9">
          <mxGeometry width="50" height="50" relative="1" as="geometry">
            <mxPoint x="208" y="290" as="sourcePoint" />
            <mxPoint x="362" y="210" as="targetPoint" />
          </mxGeometry>
        </mxCell>
        <mxCell id="uWBQQK3N8dRWs0t0_VWJ-12" value="" style="endArrow=none;html=1;rounded=0;" edge="1" parent="1" source="uWBQQK3N8dRWs0t0_VWJ-6" target="uWBQQK3N8dRWs0t0_VWJ-10">
          <mxGeometry width="50" height="50" relative="1" as="geometry">
            <mxPoint x="133" y="350" as="sourcePoint" />
            <mxPoint x="80" y="445" as="targetPoint" />
          </mxGeometry>
        </mxCell>
        <mxCell id="uWBQQK3N8dRWs0t0_VWJ-15" value="No" style="text;html=1;align=center;verticalAlign=middle;resizable=0;points=[];autosize=1;strokeColor=none;fillColor=none;" vertex="1" parent="1">
          <mxGeometry x="190" y="358" width="40" height="30" as="geometry" />
        </mxCell>
        <mxCell id="uWBQQK3N8dRWs0t0_VWJ-16" value="Yes" style="text;html=1;align=center;verticalAlign=middle;resizable=0;points=[];autosize=1;strokeColor=none;fillColor=none;" vertex="1" parent="1">
          <mxGeometry x="90" y="378" width="40" height="30" as="geometry" />
        </mxCell>
        <mxCell id="uWBQQK3N8dRWs0t0_VWJ-17" value="Student?" style="rounded=1;whiteSpace=wrap;html=1;" vertex="1" parent="1">
          <mxGeometry x="80" y="280" width="120" height="60" as="geometry" />
        </mxCell>
        <mxCell id="uWBQQK3N8dRWs0t0_VWJ-18" value="Credit_income?" style="rounded=1;whiteSpace=wrap;html=1;" vertex="1" parent="1">
          <mxGeometry x="610" y="280" width="120" height="60" as="geometry" />
        </mxCell>
        <mxCell id="uWBQQK3N8dRWs0t0_VWJ-19" value="Y" style="ellipse;whiteSpace=wrap;html=1;aspect=fixed;" vertex="1" parent="1">
          <mxGeometry x="540" y="420" width="80" height="80" as="geometry" />
        </mxCell>
        <mxCell id="uWBQQK3N8dRWs0t0_VWJ-20" value="N" style="ellipse;whiteSpace=wrap;html=1;aspect=fixed;" vertex="1" parent="1">
          <mxGeometry x="720" y="420" width="80" height="80" as="geometry" />
        </mxCell>
        <mxCell id="uWBQQK3N8dRWs0t0_VWJ-21" value="" style="endArrow=none;html=1;rounded=0;" edge="1" parent="1" source="uWBQQK3N8dRWs0t0_VWJ-18" target="uWBQQK3N8dRWs0t0_VWJ-2">
          <mxGeometry width="50" height="50" relative="1" as="geometry">
            <mxPoint x="420" y="340" as="sourcePoint" />
            <mxPoint x="420" y="210" as="targetPoint" />
          </mxGeometry>
        </mxCell>
        <mxCell id="uWBQQK3N8dRWs0t0_VWJ-22" value="&amp;gt;40" style="text;html=1;align=center;verticalAlign=middle;resizable=0;points=[];autosize=1;strokeColor=none;fillColor=none;" vertex="1" parent="1">
          <mxGeometry x="530" y="188" width="40" height="30" as="geometry" />
        </mxCell>
        <mxCell id="uWBQQK3N8dRWs0t0_VWJ-23" value="" style="endArrow=none;html=1;rounded=0;" edge="1" parent="1" source="uWBQQK3N8dRWs0t0_VWJ-19" target="uWBQQK3N8dRWs0t0_VWJ-18">
          <mxGeometry width="50" height="50" relative="1" as="geometry">
            <mxPoint x="624" y="290" as="sourcePoint" />
            <mxPoint x="476" y="210" as="targetPoint" />
          </mxGeometry>
        </mxCell>
        <mxCell id="uWBQQK3N8dRWs0t0_VWJ-24" value="" style="endArrow=none;html=1;rounded=0;" edge="1" parent="1" source="uWBQQK3N8dRWs0t0_VWJ-20" target="uWBQQK3N8dRWs0t0_VWJ-18">
          <mxGeometry width="50" height="50" relative="1" as="geometry">
            <mxPoint x="611" y="436" as="sourcePoint" />
            <mxPoint x="662" y="350" as="targetPoint" />
          </mxGeometry>
        </mxCell>
        <mxCell id="uWBQQK3N8dRWs0t0_VWJ-25" value="Excellent" style="text;html=1;align=center;verticalAlign=middle;resizable=0;points=[];autosize=1;strokeColor=none;fillColor=none;" vertex="1" parent="1">
          <mxGeometry x="715" y="358" width="70" height="30" as="geometry" />
        </mxCell>
        <mxCell id="uWBQQK3N8dRWs0t0_VWJ-26" value="Fair" style="text;html=1;align=center;verticalAlign=middle;resizable=0;points=[];autosize=1;strokeColor=none;fillColor=none;" vertex="1" parent="1">
          <mxGeometry x="575" y="355" width="40" height="30" as="geometry" />
        </mxCell>
      </root>
    </mxGraphModel>
  </diagram>
</mxfile>
